<mxfile host="app.diagrams.net" agent="Mozilla/5.0 (Windows NT 10.0; Win64; x64) AppleWebKit/537.36 (KHTML, like Gecko) Chrome/133.0.0.0 Safari/537.36" version="26.0.10">
  <diagram name="Página-1" id="T3tYC8xKGlT3T5pslPR9">
    <mxGraphModel dx="819" dy="426" grid="1" gridSize="10" guides="1" tooltips="1" connect="1" arrows="1" fold="1" page="1" pageScale="1" pageWidth="827" pageHeight="1169" math="0" shadow="0">
      <root>
        <mxCell id="0" />
        <mxCell id="1" parent="0" />
        <mxCell id="Mm9V5kj9uxSMZeTVZxoi-5" style="edgeStyle=orthogonalEdgeStyle;rounded=0;orthogonalLoop=1;jettySize=auto;html=1;exitX=1;exitY=0.5;exitDx=0;exitDy=0;" edge="1" parent="1" source="Mm9V5kj9uxSMZeTVZxoi-1" target="Mm9V5kj9uxSMZeTVZxoi-3">
          <mxGeometry relative="1" as="geometry" />
        </mxCell>
        <mxCell id="Mm9V5kj9uxSMZeTVZxoi-1" value="Inicio" style="rounded=1;whiteSpace=wrap;html=1;" vertex="1" parent="1">
          <mxGeometry x="60" y="180" width="80" height="30" as="geometry" />
        </mxCell>
        <mxCell id="Mm9V5kj9uxSMZeTVZxoi-7" style="edgeStyle=orthogonalEdgeStyle;rounded=0;orthogonalLoop=1;jettySize=auto;html=1;exitX=1;exitY=0.5;exitDx=0;exitDy=0;" edge="1" parent="1" source="Mm9V5kj9uxSMZeTVZxoi-3" target="Mm9V5kj9uxSMZeTVZxoi-6">
          <mxGeometry relative="1" as="geometry" />
        </mxCell>
        <mxCell id="Mm9V5kj9uxSMZeTVZxoi-3" value="Usuário escreve seu nome" style="html=1;strokeWidth=2;shape=manualInput;whiteSpace=wrap;rounded=1;size=26;arcSize=11;" vertex="1" parent="1">
          <mxGeometry x="200" y="155" width="80" height="80" as="geometry" />
        </mxCell>
        <mxCell id="Mm9V5kj9uxSMZeTVZxoi-6" value="Exibe o nome do usuário" style="strokeWidth=2;html=1;shape=mxgraph.flowchart.display;whiteSpace=wrap;" vertex="1" parent="1">
          <mxGeometry x="350" y="165" width="100" height="60" as="geometry" />
        </mxCell>
      </root>
    </mxGraphModel>
  </diagram>
</mxfile>
